<svg xmlns="http://www.w3.org/2000/svg" viewBox="0 0 20.21 20.21"><defs><style>.a,.b{fill:none;stroke:#fff;}.b{stroke-width:0.91px;}</style></defs><rect class="a" x="997.29" y="994.42" width="6.42" height="11.15" transform="translate(-1404.46 10.46) rotate(-45)"/><path class="b" d="M1010,1000.5a9.82,9.82,0,0,0,.11-1.34,8.8,8.8,0,0,0-8.81-8.81,9.82,9.82,0,0,0-1.34.11c.12.13,3.31,3.32,3.44,3.44" transform="translate(-990.4 -989.9)"/><path class="b" d="M991,999.51a10,10,0,0,0-.11,1.34,8.81,8.81,0,0,0,8.82,8.8,8.45,8.45,0,0,0,1.34-.12l-3.44-3.43" transform="translate(-990.4 -989.9)"/></svg>